HIERARCHY
ROOT mixamorig:Hips
{
	OFFSET 0.000000 201.639420 0.000000
	CHANNELS 6 Xposition Yposition Zposition Xrotation Yrotation Zrotation
	JOINT mixamorig:Spine
	{
		OFFSET 0.006200 19.524994 -2.481800
		CHANNELS 3 Xrotation Yrotation Zrotation
		JOINT mixamorig:Spine1
		{
			OFFSET -0.000900 22.835007 -2.825400
			CHANNELS 3 Xrotation Yrotation Zrotation
			JOINT mixamorig:Spine2
			{
				OFFSET -0.020600 26.552490 -3.193300
				CHANNELS 3 Xrotation Yrotation Zrotation
				JOINT mixamorig:Neck
				{
					OFFSET -0.060000 30.701813 1.352200
					CHANNELS 3 Xrotation Yrotation Zrotation
					JOINT mixamorig:Head
					{
						OFFSET -0.087200 22.547607 3.670900
						CHANNELS 3 Xrotation Yrotation Zrotation
						JOINT mixamorig:HeadTop_End
						{
							OFFSET -0.830600 40.355194 7.893500
							CHANNELS 3 Xrotation Yrotation Zrotation
							End Site
							{
								OFFSET 0.000000 30.592346 0.000000
							}
						}
						JOINT mixamorig:RightEye
						{
							OFFSET -6.302100 18.118591 16.197100
							CHANNELS 3 Xrotation Yrotation Zrotation
							End Site
							{
								OFFSET 0.000000 30.592346 0.000000
							}
						}
						JOINT mixamorig:LeftEye
						{
							OFFSET 6.741500 18.382690 16.401899
							CHANNELS 3 Xrotation Yrotation Zrotation
							End Site
							{
								OFFSET 0.000000 30.592346 0.000000
							}
						}
					}
				}
				JOINT mixamorig:LeftShoulder
				{
					OFFSET 11.924900 18.230499 1.425400
					CHANNELS 3 Xrotation Yrotation Zrotation
					JOINT mixamorig:LeftArm
					{
						OFFSET 25.435989 -0.697632 -5.229300
						CHANNELS 3 Xrotation Yrotation Zrotation
						JOINT mixamorig:LeftForeArm
						{
							OFFSET 54.684776 0.000000 0.000000
							CHANNELS 3 Xrotation Yrotation Zrotation
							JOINT mixamorig:LeftHand
							{
								OFFSET 55.098175 0.000000 0.000000
								CHANNELS 3 Xrotation Yrotation Zrotation
								JOINT mixamorig:LeftHandMiddle1
								{
									OFFSET 23.369751 0.000000 0.000000
									CHANNELS 3 Xrotation Yrotation Zrotation
									JOINT mixamorig:LeftHandMiddle2
									{
										OFFSET 6.378677 0.000000 0.000000
										CHANNELS 3 Xrotation Yrotation Zrotation
										JOINT mixamorig:LeftHandMiddle3
										{
											OFFSET 6.148331 0.000000 0.000000
											CHANNELS 3 Xrotation Yrotation Zrotation
											JOINT mixamorig:LeftHandMiddle4
											{
												OFFSET 6.582504 0.000000 0.000000
												CHANNELS 3 Xrotation Yrotation Zrotation
												End Site
												{
													OFFSET -1.168900 6.395691 1.028606
												}
											}
										}
									}
								}
								JOINT mixamorig:LeftHandThumb1
								{
									OFFSET 7.235672 -3.848206 5.434273
									CHANNELS 3 Xrotation Yrotation Zrotation
									JOINT mixamorig:LeftHandThumb2
									{
										OFFSET 6.568451 -3.792297 3.792300
										CHANNELS 3 Xrotation Yrotation Zrotation
										JOINT mixamorig:LeftHandThumb3
										{
											OFFSET 6.063080 -3.500519 3.500518
											CHANNELS 3 Xrotation Yrotation Zrotation
											JOINT mixamorig:LeftHandThumb4
											{
												OFFSET 4.793182 -2.767334 2.767349
												CHANNELS 3 Xrotation Yrotation Zrotation
												End Site
												{
													OFFSET 0.101639 6.054260 1.275483
												}
											}
										}
									}
								}
								JOINT mixamorig:LeftHandIndex1
								{
									OFFSET 23.101074 -0.309540 4.992809
									CHANNELS 3 Xrotation Yrotation Zrotation
									JOINT mixamorig:LeftHandIndex2
									{
										OFFSET 6.226883 0.000000 0.000000
										CHANNELS 3 Xrotation Yrotation Zrotation
										JOINT mixamorig:LeftHandIndex3
										{
											OFFSET 6.094330 0.000000 0.000000
											CHANNELS 3 Xrotation Yrotation Zrotation
											JOINT mixamorig:LeftHandIndex4
											{
												OFFSET 5.482605 0.000000 0.000000
												CHANNELS 3 Xrotation Yrotation Zrotation
												End Site
												{
													OFFSET -1.427902 5.233032 0.797164
												}
											}
										}
									}
								}
								JOINT mixamorig:LeftHandRing1
								{
									OFFSET 22.299240 0.021149 -3.964172
									CHANNELS 3 Xrotation Yrotation Zrotation
									JOINT mixamorig:LeftHandRing2
									{
										OFFSET 6.321869 0.000000 0.000000
										CHANNELS 3 Xrotation Yrotation Zrotation
										JOINT mixamorig:LeftHandRing3
										{
											OFFSET 5.899796 0.000000 0.000000
											CHANNELS 3 Xrotation Yrotation Zrotation
											JOINT mixamorig:LeftHandRing4
											{
												OFFSET 6.517899 0.000000 0.000000
												CHANNELS 3 Xrotation Yrotation Zrotation
												End Site
												{
													OFFSET -1.637299 6.232208 0.980890
												}
											}
										}
									}
								}
								JOINT mixamorig:LeftHandPinky1
								{
									OFFSET 20.463791 -0.302338 -8.562233
									CHANNELS 3 Xrotation Yrotation Zrotation
									JOINT mixamorig:LeftHandPinky2
									{
										OFFSET 6.908646 0.000000 0.000000
										CHANNELS 3 Xrotation Yrotation Zrotation
										JOINT mixamorig:LeftHandPinky3
										{
											OFFSET 4.622849 0.000000 0.000000
											CHANNELS 3 Xrotation Yrotation Zrotation
											JOINT mixamorig:LeftHandPinky4
											{
												OFFSET 5.216080 0.000000 0.000000
												CHANNELS 3 Xrotation Yrotation Zrotation
												End Site
												{
													OFFSET -0.606308 5.116241 0.814926
												}
											}
										}
									}
								}
							}
						}
					}
				}
				JOINT mixamorig:RightShoulder
				{
					OFFSET -12.001300 18.284088 1.348900
					CHANNELS 3 Xrotation Yrotation Zrotation
					JOINT mixamorig:RightArm
					{
						OFFSET -25.308500 -0.751312 -5.164599
						CHANNELS 3 Xrotation Yrotation Zrotation
						JOINT mixamorig:RightForeArm
						{
							OFFSET -54.684429 0.000000 0.000000
							CHANNELS 3 Xrotation Yrotation Zrotation
							JOINT mixamorig:RightHand
							{
								OFFSET -55.150291 0.000000 0.000000
								CHANNELS 3 Xrotation Yrotation Zrotation
								JOINT mixamorig:RightHandMiddle1
								{
									OFFSET -23.317566 0.000000 0.000000
									CHANNELS 3 Xrotation Yrotation Zrotation
									JOINT mixamorig:RightHandMiddle2
									{
										OFFSET -6.378403 0.000000 0.000000
										CHANNELS 3 Xrotation Yrotation Zrotation
										JOINT mixamorig:RightHandMiddle3
										{
											OFFSET -6.148193 0.000000 0.000000
											CHANNELS 3 Xrotation Yrotation Zrotation
											JOINT mixamorig:RightHandMiddle4
											{
												OFFSET -6.583389 0.000000 0.000000
												CHANNELS 3 Xrotation Yrotation Zrotation
												End Site
												{
													OFFSET 1.171692 6.395905 1.029786
												}
											}
										}
									}
								}
								JOINT mixamorig:RightHandThumb1
								{
									OFFSET -7.190521 -3.860474 5.435846
									CHANNELS 3 Xrotation Yrotation Zrotation
									JOINT mixamorig:RightHandThumb2
									{
										OFFSET -6.567429 -3.791718 3.791708
										CHANNELS 3 Xrotation Yrotation Zrotation
										JOINT mixamorig:RightHandThumb3
										{
											OFFSET -6.062469 -3.500153 3.500166
											CHANNELS 3 Xrotation Yrotation Zrotation
											JOINT mixamorig:RightHandThumb4
											{
												OFFSET -4.792618 -2.767029 2.767022
												CHANNELS 3 Xrotation Yrotation Zrotation
												End Site
												{
													OFFSET -0.100327 6.053253 1.276754
												}
											}
										}
									}
								}
								JOINT mixamorig:RightHandIndex1
								{
									OFFSET -23.048981 -0.310791 4.992554
									CHANNELS 3 Xrotation Yrotation Zrotation
									JOINT mixamorig:RightHandIndex2
									{
										OFFSET -6.227539 0.000000 0.000000
										CHANNELS 3 Xrotation Yrotation Zrotation
										JOINT mixamorig:RightHandIndex3
										{
											OFFSET -6.095047 0.000000 0.000000
											CHANNELS 3 Xrotation Yrotation Zrotation
											JOINT mixamorig:RightHandIndex4
											{
												OFFSET -5.484772 0.000000 0.000000
												CHANNELS 3 Xrotation Yrotation Zrotation
												End Site
												{
													OFFSET 1.420593 5.237305 0.797056
												}
											}
										}
									}
								}
								JOINT mixamorig:RightHandRing1
								{
									OFFSET -22.246323 0.020569 -3.963762
									CHANNELS 3 Xrotation Yrotation Zrotation
									JOINT mixamorig:RightHandRing2
									{
										OFFSET -6.322128 0.000000 0.000000
										CHANNELS 3 Xrotation Yrotation Zrotation
										JOINT mixamorig:RightHandRing3
										{
											OFFSET -5.900024 0.000000 0.000000
											CHANNELS 3 Xrotation Yrotation Zrotation
											JOINT mixamorig:RightHandRing4
											{
												OFFSET -6.518356 0.000000 0.000000
												CHANNELS 3 Xrotation Yrotation Zrotation
												End Site
												{
													OFFSET 1.636398 6.232697 0.982186
												}
											}
										}
									}
								}
								JOINT mixamorig:RightHandPinky1
								{
									OFFSET -20.411011 -0.303314 -8.561701
									CHANNELS 3 Xrotation Yrotation Zrotation
									JOINT mixamorig:RightHandPinky2
									{
										OFFSET -6.907349 0.000000 0.000000
										CHANNELS 3 Xrotation Yrotation Zrotation
										JOINT mixamorig:RightHandPinky3
										{
											OFFSET -4.623840 0.000000 0.000000
											CHANNELS 3 Xrotation Yrotation Zrotation
											JOINT mixamorig:RightHandPinky4
											{
												OFFSET -5.218353 0.000000 0.000000
												CHANNELS 3 Xrotation Yrotation Zrotation
												End Site
												{
													OFFSET 0.602097 5.118835 0.816273
												}
											}
										}
									}
								}
							}
						}
					}
				}
			}
		}
	}
	JOINT mixamorig:LeftUpLeg
	{
		OFFSET 18.168400 -13.561905 -0.039000
		CHANNELS 3 Xrotation Yrotation Zrotation
		JOINT mixamorig:LeftLeg
		{
			OFFSET 0.577358 -80.825211 -3.695000
			CHANNELS 3 Xrotation Yrotation Zrotation
			JOINT mixamorig:LeftFoot
			{
				OFFSET -0.577356 -83.370262 -6.520700
				CHANNELS 3 Xrotation Yrotation Zrotation
				JOINT mixamorig:LeftToeBase
				{
					OFFSET 0.750401 -20.798306 25.135401
					CHANNELS 3 Xrotation Yrotation Zrotation
					JOINT mixamorig:LeftToe_End
					{
						OFFSET -0.000500 0.001200 19.917799
						CHANNELS 3 Xrotation Yrotation Zrotation
						End Site
						{
							OFFSET 0.000000 19.917805 0.000000
						}
					}
				}
			}
		}
	}
	JOINT mixamorig:RightUpLeg
	{
		OFFSET -18.162500 -13.585098 -0.041000
		CHANNELS 3 Xrotation Yrotation Zrotation
		JOINT mixamorig:RightLeg
		{
			OFFSET -0.595024 -80.945297 -3.631900
			CHANNELS 3 Xrotation Yrotation Zrotation
			JOINT mixamorig:RightFoot
			{
				OFFSET 0.595024 -83.218193 -6.561200
				CHANNELS 3 Xrotation Yrotation Zrotation
				JOINT mixamorig:RightToeBase
				{
					OFFSET -0.753601 -20.807106 25.115000
					CHANNELS 3 Xrotation Yrotation Zrotation
					JOINT mixamorig:RightToe_End
					{
						OFFSET 0.000299 0.001700 19.918200
						CHANNELS 3 Xrotation Yrotation Zrotation
						End Site
						{
							OFFSET 0.000000 19.918203 0.000000
						}
					}
				}
			}
		}
	}
}
MOTION
Frames: 4
Frame Time: 0.033333
-120.019989 142.839188 66.675560 20.027803 -17.514671 -5.505829 9.133399 1.412537 3.655425 7.355797 0.594721 2.469536 7.355985 0.562748 2.476226 -12.594621 1.895842 6.233289 -9.050387 19.216753 -6.630295 -0.000000 -0.000000 0.000000 -0.000000 -0.000000 0.000000 -0.000000 -0.000000 0.000000 1.340127 0.740633 -12.796417 -27.837624 -26.616564 -51.826758 -0.000450 -93.282537 -0.000421 6.507482 -34.724368 32.881931 -0.927671 -0.847016 -14.376365 0.598240 2.581009 -26.096324 0.029285 0.585428 -5.722496 -0.000000 -0.000000 0.000004 -1.840843 -9.507496 -9.240974 3.451760 2.496489 -2.901815 -4.638807 5.770485 5.875203 -0.000001 0.000000 -0.000001 8.217929 -16.471812 -19.121381 0.381224 2.080573 -20.763317 0.131222 1.234275 -12.136935 -0.000006 0.000000 -0.000001 1.357000 7.504418 -16.606256 0.277281 1.782671 -17.680705 0.359265 2.021791 -20.150368 0.000001 0.000001 0.000004 -6.913151 27.081874 -18.113739 0.156602 1.346917 -13.264095 0.052131 0.780661 -7.641045 -0.000001 0.000000 0.000003 -0.927573 20.165095 12.134556 -25.818856 34.645540 45.026120 -0.000284 83.221067 0.000279 1.262756 38.239791 -38.058060 0.246825 -3.759914 10.840695 0.518021 -2.136524 27.255593 0.283963 -1.602910 20.090885 0.000003 -0.000000 -0.000001 -13.238811 13.184490 18.517141 7.301257 -18.369140 0.872433 -5.504772 -5.510962 -14.718520 0.000000 0.000001 0.000000 -1.014776 7.769735 21.962793 0.344582 -1.759733 22.156806 0.039819 -0.608314 7.489047 0.000002 0.000000 0.000000 3.034839 -11.064668 20.345269 0.219734 -1.415060 17.652212 0.259154 -1.533419 19.184700 0.000001 0.000001 0.000001 -7.812423 -22.665996 19.385202 0.192813 -1.327511 16.527212 0.063815 -0.769221 9.486515 0.000000 0.000001 0.000001 -78.417778 -14.109830 28.365149 95.872299 4.753239 3.137548 -30.077445 3.519784 -15.058771 -2.623893 -0.000002 0.000000 0.000000 0.000000 -0.000000 -82.707382 -3.839511 0.219549 87.937326 3.294444 -9.338934 -24.106528 -5.328167 10.257371 -7.677802 -0.000005 0.000004 0.000000 -0.000002 -0.000000 
-121.536812 142.231979 65.604668 21.705107 -17.512275 -5.736424 9.533687 1.281795 2.971717 7.711829 0.521782 1.994823 7.712218 0.473076 2.004961 -14.720661 2.006703 5.163025 -12.604479 18.623388 -4.863116 0.000002 0.000000 -0.000000 0.000002 0.000000 -0.000000 0.000002 0.000000 -0.000000 1.404334 0.937078 -13.317341 -28.965384 -26.485326 -51.323565 -0.001543 -92.847652 -0.001518 6.326968 -34.578775 32.940589 -0.927685 -0.847019 -14.376380 0.598252 2.581016 -26.096293 0.029262 0.585426 -5.722504 0.000001 -0.000003 -0.000003 -1.840851 -9.507500 -9.240961 3.451772 2.496491 -2.901816 -4.638798 5.770466 5.875211 0.000001 0.000004 -0.000001 8.217925 -16.471805 -19.121360 0.381208 2.080576 -20.763321 0.131219 1.234281 -12.136951 -0.000000 -0.000000 -0.000002 1.357015 7.504406 -16.606258 0.277270 1.782675 -17.680693 0.359277 2.021791 -20.150366 -0.000003 0.000000 -0.000000 -6.913151 27.081871 -18.113716 0.156616 1.346905 -13.264103 0.052133 0.780657 -7.641030 0.000001 0.000000 -0.000002 -0.368460 21.171005 9.858737 -29.025319 34.285593 47.899567 -0.000046 81.425185 0.000040 1.334571 39.255454 -37.389507 0.246817 -3.759943 10.840691 0.518048 -2.136501 27.255602 0.283969 -1.602901 20.090906 -0.000001 -0.000002 -0.000001 -13.238838 13.184465 18.517143 7.301265 -18.369147 0.872440 -5.504776 -5.510961 -14.718520 0.000000 0.000001 0.000000 -1.014790 7.769719 21.962799 0.344582 -1.759738 22.156816 0.039832 -0.608329 7.489039 -0.000000 0.000000 0.000000 3.034839 -11.064690 20.345284 0.219730 -1.415069 17.652206 0.259193 -1.533414 19.184683 -0.000000 0.000003 0.000005 -7.812425 -22.666008 19.385195 0.192811 -1.327508 16.527219 0.063823 -0.769227 9.486513 -0.000001 0.000001 0.000000 -80.599278 -15.653993 28.845941 95.737737 4.185575 3.227305 -29.045205 3.465198 -15.466881 -2.130640 0.000002 0.000001 0.000000 -0.000000 0.000001 -85.093365 -5.815056 0.028905 88.550261 4.236483 -9.265695 -23.819899 -5.633030 8.657582 -7.738287 -0.000004 0.000000 0.000000 0.000001 0.000000 
-122.189835 143.671677 65.579247 22.702891 -16.290814 -6.057968 9.473673 1.094510 2.859778 7.689523 0.389243 1.905140 7.689364 0.346595 1.913419 -16.584796 1.786980 4.408921 -14.625890 16.572636 -3.594506 -0.000001 -0.000000 0.000000 -0.000001 -0.000000 0.000000 -0.000001 -0.000000 0.000000 1.411676 0.363359 -13.377537 -28.465177 -26.356317 -51.662526 0.000491 -92.322875 0.000555 6.567563 -34.934102 33.762329 -0.927684 -0.847027 -14.376372 0.598246 2.581012 -26.096319 0.029249 0.585426 -5.722496 -0.000004 -0.000001 0.000001 -1.840850 -9.507507 -9.240958 3.451758 2.496486 -2.901832 -4.638801 5.770475 5.875190 -0.000002 0.000004 -0.000000 8.217921 -16.471817 -19.121366 0.381202 2.080587 -20.763326 0.131211 1.234279 -12.136957 0.000002 0.000000 -0.000003 1.356988 7.504419 -16.606249 0.277286 1.782656 -17.680703 0.359263 2.021797 -20.150371 -0.000000 0.000001 0.000002 -6.913161 27.081862 -18.113713 0.156603 1.346908 -13.264110 0.052125 0.780671 -7.641027 0.000000 0.000000 -0.000001 -0.223767 20.838818 9.886515 -28.549028 34.331212 47.252505 0.000094 81.249970 -0.000086 0.850087 39.104349 -36.638149 0.246814 -3.759927 10.840713 0.518034 -2.136526 27.255585 0.283966 -1.602896 20.090890 0.000005 0.000000 0.000002 -13.238809 13.184487 18.517135 7.301260 -18.369145 0.872432 -5.504781 -5.510965 -14.718528 0.000000 0.000001 -0.000000 -1.014765 7.769736 21.962813 0.344580 -1.759728 22.156780 0.039810 -0.608308 7.489064 0.000002 0.000000 -0.000005 3.034849 -11.064671 20.345271 0.219733 -1.415067 17.652199 0.259156 -1.533399 19.184707 -0.000000 0.000001 0.000000 -7.812420 -22.665996 19.385207 0.192814 -1.327514 16.527215 0.063837 -0.769212 9.486494 -0.000001 0.000001 0.000004 -81.260106 -16.128578 27.915972 94.120820 3.987461 3.227941 -28.056030 3.289431 -15.345451 -1.985088 0.000003 -0.000005 -0.000000 -0.000000 0.000000 -85.022441 -6.657163 -0.687703 87.411846 4.406622 -9.181898 -23.570150 -6.154348 8.216476 -7.801401 -0.000008 0.000001 0.000001 -0.000002 -0.000000 
-122.314911 147.038895 66.511269 23.206700 -14.871735 -6.238103 8.995059 1.011515 3.011265 7.293873 0.365298 2.019015 7.293508 0.330708 2.025175 -17.419865 1.770690 3.858100 -14.943745 15.613971 -2.949452 0.000000 -0.000000 -0.000000 0.000000 -0.000000 -0.000000 0.000000 -0.000000 -0.000000 1.465907 0.378913 -13.908018 -25.821006 -26.998384 -51.664859 -0.004367 -92.099534 -0.004307 7.418520 -35.132506 34.950560 -0.927677 -0.847015 -14.376358 0.598256 2.581001 -26.096307 0.029238 0.585431 -5.722503 -0.000000 0.000001 0.000004 -1.840834 -9.507507 -9.240942 3.451768 2.496482 -2.901838 -4.638797 5.770474 5.875208 0.000001 0.000001 -0.000001 8.217952 -16.471817 -19.121359 0.381206 2.080569 -20.763316 0.131217 1.234284 -12.136936 0.000000 -0.000001 0.000000 1.356996 7.504415 -16.606241 0.277280 1.782674 -17.680710 0.359287 2.021787 -20.150361 -0.000001 -0.000001 0.000001 -6.913161 27.081883 -18.113715 0.156610 1.346905 -13.264109 0.052123 0.780668 -7.641042 0.000000 0.000000 0.000002 0.025831 20.716039 9.453989 -25.585098 32.997474 46.360145 -0.000113 82.184845 0.000089 0.718268 39.268547 -36.926772 0.246804 -3.759917 10.840679 0.518026 -2.136526 27.255592 0.283966 -1.602899 20.090906 0.000001 0.000002 0.000002 -13.238824 13.184489 18.517121 7.301253 -18.369135 0.872435 -5.504769 -5.510955 -14.718520 0.000000 0.000002 0.000000 -1.014802 7.769728 21.962787 0.344595 -1.759744 22.156809 0.039814 -0.608313 7.489048 0.000002 0.000000 0.000004 3.034840 -11.064672 20.345288 0.219746 -1.415055 17.652207 0.259159 -1.533415 19.184685 -0.000001 -0.000000 0.000004 -7.812432 -22.665988 19.385185 0.192791 -1.327532 16.527210 0.063824 -0.769224 9.486507 -0.000001 0.000000 0.000001 -80.084808 -15.663137 26.501960 91.051189 4.390952 3.128643 -27.128304 3.149117 -15.137741 -2.478335 0.000003 0.000003 -0.000000 0.000001 0.000000 -82.964150 -6.928375 -1.454049 84.577597 4.420545 -9.115444 -23.148816 -6.616446 8.218698 -7.863196 0.000003 0.000001 0.000001 0.000000 -0.000001 
